<?xml version="1.0" standalone="no"?>
<!DOCTYPE svg PUBLIC "-//W3C//DTD SVG 20010904//EN"
 "http://www.w3.org/TR/2001/REC-SVG-20010904/DTD/svg10.dtd">
<svg version="1.0" xmlns="http://www.w3.org/2000/svg"
 width="750.000000pt" height="138.000000pt" viewBox="0 0 750.000000 138.000000"
 preserveAspectRatio="xMidYMid meet">
<metadata>
Created by potrace 1.10, written by Peter Selinger 2001-2011
</metadata>
<g transform="translate(0.000000,130.000000) scale(0.075000,-0.075000)"
fill="#000000" stroke="none">
<path d="M690 1709 c-152 -64 -121 -288 42 -306 69 -8 133 24 158 79 52 114
-9 228 -125 235 -27 1 -61 -2 -75 -8z"/>
<path d="M618 1358 c-22 -6 -51 -25 -70 -46 -30 -35 -36 -37 -92 -38 -34 -1
-82 4 -108 12 -79 21 -160 -12 -192 -80 -23 -49 -42 -293 -26 -340 13 -40 68
-93 106 -102 48 -12 113 2 152 33 21 17 47 33 59 37 20 6 21 5 13 -30 -5 -20
-6 -42 -4 -48 6 -16 -45 -248 -96 -438 -22 -82 -40 -160 -40 -172 0 -13 12
-35 26 -50 21 -20 37 -26 70 -26 77 0 87 22 166 353 24 103 46 176 52 174 21
-7 87 -153 102 -227 11 -54 14 -100 9 -163 l-7 -87 30 -30 c25 -24 39 -30 75
-30 60 0 76 21 88 112 19 149 -23 339 -107 482 l-46 78 23 139 22 138 28 -20
c61 -43 216 -109 257 -109 51 0 82 34 82 91 0 51 -29 81 -108 112 -122 48
-218 122 -285 221 -34 49 -111 73 -179 54z m-120 -228 c6 -76 -7 -168 -25
-174 -9 -4 -18 -4 -20 -2 -3 2 -2 55 2 116 7 94 10 111 24 108 11 -2 17 -16
19 -48z"/>
</g>
<g transform="translate(100.000000,135.000000) scale(0.040000,-0.040000)"
fill="#000000" stroke="none">
<path d="M1893 3103 c-51 -56 -41 -90 68 -232 87 -114 97 -136 75 -167 -14
-19 -259 -327 -545 -684 -285 -358 -661 -829 -835 -1048 l-316 -397 0 -168 c0
-140 6 -173 40 -207 94 -94 180 -15 180 163 0 131 62 236 287 487 l71 80 1
-354 c1 -342 2 -355 45 -385 72 -50 2433 -47 2494 4 39 33 42 57 47 385 l5
350 174 -220 175 -220 0 -135 c1 -156 49 -214 146 -177 65 25 75 56 75 239 l0
153 -581 730 c-320 402 -615 770 -655 820 -225 272 -484 604 -484 619 0 9 42
67 93 129 125 153 120 272 -13 272 -43 0 -76 -25 -146 -110 l-91 -111 -86 111
c-94 120 -162 142 -224 73z m570 -862 c136 -171 265 -334 287 -362 22 -29 150
-191 285 -359 l245 -305 0 -408 0 -407 -330 0 -330 0 -2 245 c-3 541 -114 708
-453 682 -282 -21 -363 -160 -364 -622 l-1 -305 -330 0 -330 0 0 412 0 411
533 669 c293 368 535 667 537 664 3 -4 116 -145 253 -315z m-123 -1181 c37
-37 40 -67 40 -350 l0 -310 -181 0 -182 0 7 308 c5 269 11 313 44 350 53 58
215 59 272 2z"/>
</g>
<g transform="translate(275.000000,139.000000) scale(0.100000,-0.100000)"
fill="#000000" stroke="none">
<path d="M415 1331 c-138 -10 -251 -36 -282 -67 -28 -28 -28 -37 -3 -262 10
-97 36 -325 56 -507 20 -181 41 -343 46 -358 12 -32 41 -49 118 -68 112 -27
336 -5 391 40 22 18 39 127 69 426 6 66 22 212 35 325 47 402 47 406 17 431
-43 34 -251 53 -447 40z m360 -31 c28 -6 56 -15 64 -19 20 -12 7 -39 -25 -51
-131 -50 -565 -53 -631 -5 -16 12 -16 15 -3 29 19 19 113 43 211 55 94 11 318
6 384 -9z m53 -142 c2 -9 -15 -37 -37 -61 -49 -53 -52 -85 -15 -134 37 -48 27
-83 -22 -83 -26 0 -43 -8 -65 -29 -57 -58 -33 -149 45 -170 30 -7 31 -10 30
-60 -3 -98 -15 -162 -34 -178 -66 -56 -70 -62 -70 -102 0 -31 7 -49 31 -76 17
-19 29 -41 26 -49 -9 -23 -104 -48 -202 -53 -117 -6 -245 24 -245 58 0 5 7 9
16 9 26 0 71 31 83 57 29 63 -13 143 -76 143 -15 0 -33 4 -40 8 -6 4 -16 51
-22 104 -16 146 -18 138 35 138 56 0 79 12 99 50 24 47 19 78 -20 117 -37 37
-49 38 -123 17 -18 -5 -22 -2 -22 17 0 13 12 35 26 50 16 16 28 43 31 68 5 40
3 44 -41 86 -50 46 -59 83 -21 77 11 -1 52 -6 90 -11 91 -12 340 -5 430 13 87
17 109 16 113 -6z m-624 -100 c18 -26 20 -61 6 -89 -20 -36 -37 -22 -43 38 -8
77 6 96 37 51z m619 -30 c-7 -64 -12 -76 -23 -58 -20 31 -9 100 15 100 9 0 12
-12 8 -42z m-500 -210 c47 -64 -36 -145 -95 -91 -23 21 -24 80 -1 105 24 27
71 20 96 -14z m457 -14 c11 -27 0 -63 -24 -83 -13 -11 -20 -11 -41 3 -20 13
-25 25 -25 56 0 70 66 88 90 24z m-444 -420 c20 -19 24 -31 19 -52 -10 -39
-24 -52 -56 -52 -60 0 -84 73 -37 113 28 23 44 22 74 -9z m398 -47 c-7 -61
-24 -74 -45 -36 -14 27 -3 86 19 98 27 15 33 -1 26 -62z m-322 -197 c70 -10
216 -1 275 15 10 3 -2 -5 -27 -17 -86 -42 -337 -33 -366 14 -5 8 0 9 17 4 13
-3 58 -11 101 -16z"/>
<path d="M353 1069 c-40 -12 -66 -49 -66 -94 0 -131 182 -138 200 -7 4 33 1
44 -23 70 -33 36 -65 45 -111 31z m81 -45 c20 -19 21 -74 2 -99 -17 -23 -71
-23 -97 1 -25 22 -24 69 1 94 24 24 72 26 94 4z"/>
<path d="M557 1056 c-47 -43 -48 -106 -2 -152 52 -52 156 -15 171 60 7 38 -15
89 -45 106 -36 19 -96 12 -124 -14z m117 -28 c35 -49 5 -118 -49 -118 -26 0
-75 39 -75 60 0 18 29 68 42 73 32 13 68 6 82 -15z"/>
<path d="M464 831 c-58 -36 -64 -125 -11 -169 46 -38 136 -12 158 45 34 91
-66 175 -147 124z m105 -47 c27 -34 26 -47 -2 -80 -42 -49 -117 -24 -117 39 0
66 78 93 119 41z"/>
<path d="M345 631 c-39 -17 -60 -51 -60 -97 0 -52 24 -81 77 -93 100 -23 168
99 94 168 -26 24 -81 35 -111 22z m93 -57 c12 -14 22 -31 22 -39 0 -20 -41
-62 -67 -70 -16 -4 -30 1 -48 19 -34 34 -33 78 2 105 31 25 58 20 91 -15z"/>
<path d="M565 616 c-95 -95 30 -233 134 -149 46 38 42 136 -8 162 -37 20 -100
13 -126 -13z m115 -26 c33 -33 22 -87 -21 -111 -48 -25 -115 42 -90 90 24 43
78 54 111 21z"/>
<path d="M468 374 c-35 -19 -48 -43 -48 -91 0 -79 94 -124 159 -75 55 41 54
128 -2 162 -38 23 -72 25 -109 4z m81 -29 c47 -24 55 -69 19 -102 -42 -39 -88
-31 -108 18 -19 45 6 87 58 98 2 1 16 -6 31 -14z"/>
</g>
<g transform="translate(400.000000,138.000000) scale(0.050000,-0.050000)"
fill="#000000" stroke="none">
<path d="M601 2560 c-103 -25 -152 -118 -241 -455 -105 -397 -167 -1098 -126
-1425 l16 -130 259 0 259 0 39 110 c197 564 954 583 1126 28 49 -160 -44 -147
1127 -147 1151 0 1081 -8 1118 119 158 547 920 578 1110 45 58 -162 45 -154
271 -161 237 -6 243 -3 301 150 72 193 77 396 12 464 -40 42 -57 83 -64 160
-19 208 -119 344 -378 513 -55 36 -217 193 -360 348 -143 156 -300 307 -350
337 l-90 54 -1980 3 c-1089 2 -2011 -4 -2049 -13z m4025 -183 c76 -39 554
-523 554 -561 0 -56 -739 -55 -831 1 -43 27 -115 40 -256 47 -243 13 -239 9
-240 263 -2 237 11 266 124 280 127 16 603 -6 649 -30z m-2646 -247 l0 -270
-585 2 c-775 3 -729 -19 -655 309 56 243 10 228 675 228 l565 1 0 -270z m1480
240 c38 -46 30 -429 -11 -469 -26 -27 -118 -31 -655 -31 l-624 0 -6 265 -5
265 638 0 c541 0 642 -5 663 -30z m650 -710 c0 -24 -28 -30 -130 -30 -136 0
-188 45 -81 70 81 19 211 -6 211 -40z m-659 18 c22 -36 -33 -57 -145 -58 -102
0 -141 20 -116 60 17 27 244 25 261 -2z"/>
<path d="M1171 939 c-418 -209 -303 -846 159 -875 432 -28 671 434 393 759
-132 153 -374 205 -552 116z m366 -197 c75 -53 130 -186 111 -270 -55 -257
-372 -311 -508 -87 -150 245 161 525 397 357z"/>
<path d="M4550 943 c-341 -156 -361 -655 -32 -827 467 -244 915 313 575 717
-117 138 -369 189 -543 110z m325 -197 c144 -68 182 -275 72 -393 -148 -160
-371 -124 -446 73 -88 232 143 430 374 320z"/>
</g>
</svg>
